<svg width="60" height="60" viewBox="0 0 60 60" fill="none" xmlns="http://www.w3.org/2000/svg">
<g opacity="0.5" clip-path="url(#clip0_2658_1504)">
<path fill-rule="evenodd" clip-rule="evenodd" d="M58.23 11.1472C58.7521 11.3555 59.1997 11.7155 59.5152 12.1807C59.8307 12.646 59.9996 13.195 60 13.7572V46.2397C59.9996 46.8018 59.8307 47.3509 59.5152 47.8161C59.1997 48.2813 58.7521 48.6413 58.23 48.8497L31.0425 59.7247C30.3721 59.9928 29.6242 59.9928 28.9538 59.7247L1.76625 48.8497C1.24488 48.6407 0.79802 48.2805 0.483227 47.8153C0.168434 47.3501 0.000130725 46.8013 0 46.2397L0 13.7572C0.000130725 13.1955 0.168434 12.6467 0.483227 12.1815C0.79802 11.7164 1.24488 11.3561 1.76625 11.1472L27.9113 0.688408L27.9488 0.677158L28.9538 0.272158C29.6253 0.00303068 30.3747 0.00303068 31.0463 0.272158L32.055 0.677158L32.0925 0.688408L58.23 11.1472V11.1472ZM39.015 7.49841L15.9375 16.7272L6.9225 13.1234L3.75 14.3947V15.8947L28.125 25.6447V55.3522L30 56.1022L31.875 55.3522V25.6484L56.25 15.8984V14.3984L53.0775 13.1272L30 22.3522L20.985 18.7484L44.0625 9.51966L39.015 7.49841Z" fill="#A6A9C7"/>
</g>
<defs>
<clipPath id="clip0_2658_1504">
<rect width="60" height="60" fill="white"/>
</clipPath>
</defs>
</svg>
