<svg width="20" height="20" viewBox="0 0 20 20" fill="none" xmlns="http://www.w3.org/2000/svg">
<g opacity="0.3">
<path fill-rule="evenodd" clip-rule="evenodd" d="M18.3327 10.0013C18.3327 14.6037 14.6017 18.3346 9.99935 18.3346C5.39698 18.3346 1.66602 14.6037 1.66602 10.0013C1.66602 5.39893 5.39698 1.66797 9.99935 1.66797C14.6017 1.66797 18.3327 5.39893 18.3327 10.0013ZM13.0886 8.09056C13.414 7.76512 13.414 7.23748 13.0886 6.91205C12.7632 6.58661 12.2355 6.58661 11.9101 6.91205L9.99935 8.82279L8.0886 6.91205C7.76317 6.58661 7.23553 6.58661 6.91009 6.91205C6.58466 7.23748 6.58466 7.76512 6.91009 8.09056L8.82084 10.0013L6.91009 11.912C6.58466 12.2375 6.58466 12.7651 6.91009 13.0906C7.23553 13.416 7.76317 13.416 8.0886 13.0906L9.99935 11.1798L11.9101 13.0906C12.2355 13.416 12.7632 13.416 13.0886 13.0906C13.414 12.7651 13.414 12.2375 13.0886 11.912L11.1779 10.0013L13.0886 8.09056Z" fill="#333333"/>
</g>
</svg>
