<svg width="20" height="20" viewBox="0 0 20 20" fill="none" xmlns="http://www.w3.org/2000/svg">
<path d="M3.33398 11.6667C3.33398 10.2083 3.68121 8.90972 4.37565 7.77083C5.0701 6.63194 5.83398 5.67361 6.66732 4.89583C7.50065 4.11806 8.26454 3.52417 8.95899 3.11417L10.0007 2.5V5.25C10.0007 5.76389 10.1743 6.17 10.5215 6.46833C10.8687 6.76667 11.2576 6.91611 11.6882 6.91667C11.9243 6.91667 12.1501 6.86806 12.3657 6.77083C12.5812 6.67361 12.779 6.51389 12.959 6.29167L13.334 5.83333C14.334 6.41667 15.1395 7.22556 15.7507 8.26C16.3618 9.29444 16.6673 10.43 16.6673 11.6667C16.6673 12.8889 16.3687 14.0036 15.7715 15.0108C15.1743 16.0181 14.3895 16.8128 13.4173 17.395C13.6534 17.0617 13.8376 16.6969 13.9698 16.3008C14.102 15.9047 14.1679 15.485 14.1673 15.0417C14.1673 14.4861 14.0632 13.9617 13.8548 13.4683C13.6465 12.975 13.3479 12.5342 12.959 12.1458L10.0007 9.25L7.06315 12.1458C6.66037 12.5486 6.35482 12.9931 6.14648 13.4792C5.93815 13.9653 5.83398 14.4861 5.83398 15.0417C5.83398 15.4861 5.9001 15.9064 6.03232 16.3025C6.16454 16.6986 6.34843 17.0631 6.58398 17.3958C5.61176 16.8125 4.82704 16.0172 4.22982 15.01C3.6326 14.0028 3.33398 12.8883 3.33398 11.6667ZM10.0007 11.5833L11.7715 13.3125C12.0076 13.5486 12.1882 13.8125 12.3132 14.1042C12.4382 14.3958 12.5007 14.7083 12.5007 15.0417C12.5007 15.7222 12.2576 16.3019 11.7715 16.7808C11.2854 17.2597 10.6951 17.4994 10.0007 17.5C9.30621 17.5 8.71593 17.2603 8.22982 16.7808C7.74371 16.3014 7.50065 15.7217 7.50065 15.0417C7.50065 14.7222 7.56315 14.4131 7.68815 14.1142C7.81315 13.8153 7.99371 13.5481 8.22982 13.3125L10.0007 11.5833Z" fill="#FF8743"/>
</svg>
