<svg width="11" height="10" viewBox="0 0 11 10" fill="none" xmlns="http://www.w3.org/2000/svg">
<path d="M8.71331 1.21163C8.88939 1.04399 9.12371 0.951312 9.36683 0.953152C9.60995 0.954991 9.84284 1.0512 10.0164 1.22149C10.1899 1.39177 10.2905 1.62281 10.2969 1.86585C10.3033 2.10888 10.2151 2.34491 10.0508 2.52413L5.06331 8.76163C4.97755 8.854 4.87404 8.92813 4.75897 8.97959C4.64391 9.03104 4.51965 9.05877 4.39362 9.0611C4.2676 9.06343 4.1424 9.04033 4.0255 8.99317C3.90861 8.94601 3.80243 8.87576 3.71331 8.78663L0.405807 5.47913C0.313699 5.3933 0.239821 5.2898 0.188581 5.1748C0.137341 5.0598 0.109789 4.93566 0.107568 4.80978C0.105347 4.6839 0.128503 4.55887 0.175654 4.44213C0.222805 4.3254 0.292986 4.21935 0.38201 4.13033C0.471033 4.04131 0.577075 3.97113 0.69381 3.92398C0.810546 3.87682 0.935582 3.85367 1.06146 3.85589C1.18734 3.85811 1.31148 3.88566 1.42648 3.9369C1.54148 3.98814 1.64498 4.06202 1.73081 4.15413L4.34831 6.77038L8.68956 1.23913C8.69737 1.22951 8.70572 1.22032 8.71456 1.21163H8.71331Z" fill="white"/>
</svg>
